<?xml version="1.0" encoding="UTF-8"?>
<svg id="Layer_1" xmlns="http://www.w3.org/2000/svg" version="1.1" viewBox="110 222 280 48">
  <defs>
    <style>
      .st0 { display: none; fill: #107c82; }
      .st1 { fill: #fff; }
    </style>
  </defs>
  <g>
    <path class="st1" d="M145.1,260c-.8.6-6.4,3.5-12.7,3.5-10.6,0-17.5-8-17.5-18.3s7.6-18.3,18.4-18.3,9.2,1.3,11.6,2.3l.9,7.9h-.4c-4.5-6.5-7.5-9.2-12.8-9.2-8.5,0-11.9,7.4-11.9,17.3s3.5,17.3,11.6,17.3,10-4.7,13.2-11.4h.4c0,.1-.9,8.9-.9,8.9Z"/>
    <path class="st1" d="M148.9,262.8h0c.9-2.7,1.1-5.1,1.1-9.3v-5.7c0-3.2-1-4.9-2.1-6.2h0c0,0,6.5-2.6,6.5-2.6v5.9h.2c1.8-2.3,4.3-5.7,7.3-5.6v5.9h-.3c-.9-.7-3.1-1.4-4.1-1.4s-1.9.7-2.9,2.2v7.7c0,4.2,0,6.6,1,9.3h0c0,0-6.7,0-6.7,0Z"/>
    <path class="st1" d="M174.4,260.3c-1.4,1.7-3.7,3.2-6.6,3.2s-4.9-1.3-4.9-4.1c0-4.8,6.6-7.2,11.5-8v-5.2c0-2.5-1-4.1-4.2-4.1s-4.1.5-6.1,2.2l-.2-.3c1.9-2.8,5.2-4.8,9.2-4.8s6,2.7,6,5.7v13.7c0,1.2.5,2.1,1.8,2.1s1.4-.2,2.3-.9h0c-.7,1.6-2.1,3.6-4.8,3.6s-3.5-1.4-3.8-3ZM174.3,259.5v-7.3c-3.6.9-7.1,2.4-7.1,5.6s1.2,3.1,3.4,3.1,3-.6,3.8-1.4Z"/>
    <path class="st1" d="M190.3,262.8h-6.7c.9-2.7,1.1-5.1,1.1-9.3v-5.7c0-3.2-1-4.9-2.1-6.2h0c0,0,6.5-2.6,6.5-2.6v4.6h.2c2-2.4,4.2-4.4,7.4-4.4s6.5,2.7,6.5,7v7.3c0,4.3,0,6.6,1.1,9.3h0c0,0-6.7,0-6.7,0h0c.8-2.7,1-5.3,1-9.3v-6.2c0-2.7-1.2-5.1-4.2-5.1s-3.7.9-5.1,2.4v8.9c0,4.2,0,6.6,1,9.3h0Z"/>
    <path class="st1" d="M216.4,263.5c-6.2,0-10.4-5.1-10.4-11.8s5.6-12.6,10.6-12.6,9.1,5.1,8.8,9.4h-14.8v.9c0,6.8,3.2,10,8.1,10s4.9-1.2,6.5-3.2l.3.2c-1.2,3.9-4.3,7.1-9.1,7.1ZM210.8,247.7l10-.2v-.5c0-4.8-1.4-7-4.3-7s-5.3,3.4-5.7,7.7Z"/>
    <path class="st1" d="M227.9,245.5c-1-3.1-1.7-4.4-2.8-5.6h0c0,0,7.9,0,7.9,0h0c-.5,1-.8,3,0,5.3l3.3,10.4,3.4-9.8v-.3c-1.2-3.2-1.9-4.4-3-5.6h0c0,0,7.8,0,7.8,0h0c-.5,1-.8,2.8,0,5.3l3.3,10.4,3.2-9.1c1.2-3.2.3-5.5-.3-6.6h0c0,0,4.8,0,4.8,0h0c-1.6,1.9-2.4,3.2-3.4,6l-6,17.4h-.7l-5.3-16.2-5.6,16.2h-.7l-5.8-17.7Z"/>
    <path class="st1" d="M264.6,263.5c-6.2,0-10.4-5.1-10.4-11.8s5.6-12.6,10.6-12.6,9.1,5.1,8.8,9.4h-14.8v.9c0,6.8,3.2,10,8.1,10s4.9-1.2,6.5-3.2l.3.2c-1.2,3.9-4.3,7.1-9.1,7.1ZM259,247.7l10-.2v-.5c0-4.8-1.4-7-4.3-7s-5.3,3.4-5.7,7.7Z"/>
    <path class="st1" d="M286.5,260.3c-1.4,1.7-3.7,3.2-6.6,3.2s-4.9-1.3-4.9-4.1c0-4.8,6.6-7.2,11.5-8v-5.2c0-2.5-1-4.1-4.2-4.1s-4.1.5-6.1,2.2l-.2-.3c1.9-2.8,5.2-4.8,9.2-4.8s6,2.7,6,5.7v13.7c0,1.2.5,2.1,1.8,2.1s1.4-.2,2.3-.9h0c-.7,1.6-2.1,3.6-4.8,3.6s-3.5-1.4-3.8-3ZM286.5,259.5v-7.3c-3.6.9-7.1,2.4-7.1,5.6s1.2,3.1,3.4,3.1,3-.6,3.8-1.4Z"/>
    <path class="st1" d="M295.8,245.5c-1.2-3.2-1.9-4.4-2.9-5.6h0c0,0,7.9,0,7.9,0h0c-.5,1-.9,2.9,0,5.3l4.1,11.1,3.6-9.8c1.2-3.1.3-5.5-.3-6.6h0c0,0,4.9,0,4.9,0h0c-1.6,1.9-2.3,3.2-3.4,6l-6.4,17.4h-.7l-6.6-17.7Z"/>
    <path class="st1" d="M322.2,263.5c-6.2,0-10.4-5.1-10.4-11.8s5.6-12.6,10.6-12.6,9.1,5.1,8.8,9.4h-14.8v.9c0,6.8,3.2,10,8.1,10s4.9-1.2,6.5-3.2l.3.2c-1.2,3.9-4.3,7.1-9.1,7.1ZM316.6,247.7l10-.2v-.5c0-4.8-1.4-7-4.3-7s-5.3,3.4-5.7,7.7Z"/>
  </g>
  <g>
    <path class="st1" d="M356.3,260c-.3.5-1,.7-1.4.3s-.4-.5-.6-.8l-6.6-11.6c-.6-1-.9-2-1-3.2s.3-2.8,1-4l6.8-11.9c1.1-2,3.2-3.4,5.5-3.4h14.1c.4,0,.8.3,1,.6s.2.8,0,1.2l-4.3,7.5-7.9,13.6-6.7,11.6Z"/>
    <path class="st1" d="M373.9,263.5h-14.3c-.4,0-.8-.2-1.2-.4-.5-.4-.2-1.2.1-1.7l6.7-11.6c.2-.4.4-.7.8-1s1-.3,1.4,0,.6.5.8.9l6.6,11.5c.2.3.3.5.4.8.1.4,0,.9-.2,1.2-.3.3-.6.4-1.1.4Z"/>
    <path class="st1" d="M339.2,227.7l11.3.2c.4,0,.7.1.9.4.4.4.1,1-.1,1.4l-5.4,9.1c-.2.3-.3.6-.6.8s-.8.2-1.1,0-.4-.4-.6-.7l-5.1-9.1c-.1-.2-.2-.4-.3-.6,0-.3,0-.7.2-.9s.5-.3.9-.3Z"/>
  </g>
</svg>
